<mxfile host="app.diagrams.net" modified="2020-09-17T07:32:58.717Z" agent="5.0 (Windows NT 10.0; Win64; x64) AppleWebKit/537.36 (KHTML, like Gecko) Chrome/85.0.4183.102 Safari/537.36" etag="-PwOo9Odjuz6NEdxGDY9" version="13.7.1" type="github">
  <diagram id="ohaQ7qDDl_xORS5_dp5l" name="Page-1">
    <mxGraphModel dx="1038" dy="548" grid="1" gridSize="10" guides="1" tooltips="1" connect="1" arrows="1" fold="1" page="1" pageScale="1" pageWidth="827" pageHeight="1169" math="0" shadow="0">
      <root>
        <mxCell id="0" />
        <mxCell id="1" parent="0" />
        <mxCell id="8nsP0d9xVfWmfB-O7lid-6" style="edgeStyle=orthogonalEdgeStyle;rounded=0;orthogonalLoop=1;jettySize=auto;html=1;exitX=0.5;exitY=1;exitDx=0;exitDy=0;entryX=0.25;entryY=0;entryDx=0;entryDy=0;" edge="1" parent="1" source="8nsP0d9xVfWmfB-O7lid-1" target="8nsP0d9xVfWmfB-O7lid-4">
          <mxGeometry relative="1" as="geometry" />
        </mxCell>
        <mxCell id="8nsP0d9xVfWmfB-O7lid-1" value="Operadores&lt;br&gt;Datos de clientes" style="rounded=0;whiteSpace=wrap;html=1;" vertex="1" parent="1">
          <mxGeometry x="195" y="110" width="120" height="60" as="geometry" />
        </mxCell>
        <mxCell id="8nsP0d9xVfWmfB-O7lid-5" style="edgeStyle=orthogonalEdgeStyle;rounded=0;orthogonalLoop=1;jettySize=auto;html=1;exitX=0.5;exitY=1;exitDx=0;exitDy=0;entryX=0.75;entryY=0;entryDx=0;entryDy=0;" edge="1" parent="1" source="8nsP0d9xVfWmfB-O7lid-2" target="8nsP0d9xVfWmfB-O7lid-4">
          <mxGeometry relative="1" as="geometry" />
        </mxCell>
        <mxCell id="8nsP0d9xVfWmfB-O7lid-2" value="Capacity Web Portal&lt;br&gt;Data" style="rounded=0;whiteSpace=wrap;html=1;" vertex="1" parent="1">
          <mxGeometry x="435" y="110" width="120" height="60" as="geometry" />
        </mxCell>
        <mxCell id="8nsP0d9xVfWmfB-O7lid-9" style="edgeStyle=orthogonalEdgeStyle;rounded=0;orthogonalLoop=1;jettySize=auto;html=1;exitX=0.5;exitY=1;exitDx=0;exitDy=0;exitPerimeter=0;" edge="1" parent="1" source="8nsP0d9xVfWmfB-O7lid-3" target="8nsP0d9xVfWmfB-O7lid-8">
          <mxGeometry relative="1" as="geometry" />
        </mxCell>
        <mxCell id="8nsP0d9xVfWmfB-O7lid-3" value="Repositorio&lt;br&gt;Operadores" style="shape=cylinder3;whiteSpace=wrap;html=1;boundedLbl=1;backgroundOutline=1;size=15;" vertex="1" parent="1">
          <mxGeometry x="320" y="350" width="110" height="90" as="geometry" />
        </mxCell>
        <mxCell id="8nsP0d9xVfWmfB-O7lid-7" style="edgeStyle=orthogonalEdgeStyle;rounded=0;orthogonalLoop=1;jettySize=auto;html=1;exitX=0.5;exitY=1;exitDx=0;exitDy=0;entryX=0.5;entryY=0;entryDx=0;entryDy=0;entryPerimeter=0;" edge="1" parent="1" source="8nsP0d9xVfWmfB-O7lid-4" target="8nsP0d9xVfWmfB-O7lid-3">
          <mxGeometry relative="1" as="geometry" />
        </mxCell>
        <mxCell id="8nsP0d9xVfWmfB-O7lid-4" value="Match&lt;br&gt;(ID mandatory)" style="shape=process;whiteSpace=wrap;html=1;backgroundOutline=1;" vertex="1" parent="1">
          <mxGeometry x="315" y="240" width="120" height="60" as="geometry" />
        </mxCell>
        <mxCell id="8nsP0d9xVfWmfB-O7lid-10" style="edgeStyle=orthogonalEdgeStyle;rounded=0;orthogonalLoop=1;jettySize=auto;html=1;exitX=1;exitY=0.5;exitDx=0;exitDy=0;entryX=1;entryY=0.5;entryDx=0;entryDy=0;entryPerimeter=0;" edge="1" parent="1" source="8nsP0d9xVfWmfB-O7lid-8" target="8nsP0d9xVfWmfB-O7lid-3">
          <mxGeometry relative="1" as="geometry">
            <Array as="points">
              <mxPoint x="540" y="530" />
              <mxPoint x="540" y="395" />
            </Array>
          </mxGeometry>
        </mxCell>
        <mxCell id="8nsP0d9xVfWmfB-O7lid-8" value="Capacity Ckecking Team" style="rounded=0;whiteSpace=wrap;html=1;" vertex="1" parent="1">
          <mxGeometry x="315" y="500" width="120" height="60" as="geometry" />
        </mxCell>
        <mxCell id="8nsP0d9xVfWmfB-O7lid-13" value="1" style="ellipse;whiteSpace=wrap;html=1;aspect=fixed;" vertex="1" parent="1">
          <mxGeometry x="220" y="200" width="30" height="30" as="geometry" />
        </mxCell>
        <mxCell id="8nsP0d9xVfWmfB-O7lid-14" value="2" style="ellipse;whiteSpace=wrap;html=1;aspect=fixed;" vertex="1" parent="1">
          <mxGeometry x="500" y="200" width="30" height="30" as="geometry" />
        </mxCell>
      </root>
    </mxGraphModel>
  </diagram>
</mxfile>
